<?xml version="1.0" encoding="UTF-8"?>
<svg width="121px" height="123px" viewBox="0 0 121 123" version="1.1" xmlns="http://www.w3.org/2000/svg" xmlns:xlink="http://www.w3.org/1999/xlink">
    <title>cookies</title>
    <g id="Page-1" stroke="none" stroke-width="1" fill="none" fill-rule="evenodd">
        <g id="cookies" transform="translate(0.002524, 0.000000)" fill-rule="nonzero">
            <path d="M99.7774759,52.08 C104.937476,59.78 111.467476,62.14 119.947476,56.93 C120.227476,59.83 120.297476,62.79 120.147476,65.79 C118.477476,98.95 90.2474759,124.48 57.0874759,122.81 C23.9374759,121.13 -1.59252413,92.9 0.0774758725,59.75 C1.73747587,26.59 30.9474759,0.78 64.0974759,2.45 C61.1574759,11.65 63.6474759,19.82 71.1274759,22.6 C64.3474759,44.38 79.4874759,58.63 99.7774759,52.08 L99.7774759,52.08 Z" id="Path" fill="#FFB152"></path>
            <path d="M98.1774759,0 C101.477476,0 104.157476,2.68 104.157476,5.98 C104.157476,9.28 101.477476,11.96 98.1774759,11.96 C94.8774759,11.96 92.1974759,9.28 92.1974759,5.98 C92.2074759,2.68 94.8774759,0 98.1774759,0 L98.1774759,0 Z" id="Path" fill="#DE6932"></path>
            <path d="M30.0274759,47.79 C34.9974759,47.79 39.0174759,51.82 39.0174759,56.78 C39.0174759,61.74 34.9874759,65.77 30.0274759,65.77 C25.0574759,65.77 21.0374759,61.74 21.0374759,56.78 C21.0374759,51.82 25.0674759,47.79 30.0274759,47.79 L30.0274759,47.79 Z" id="Path" fill="#DE6932"></path>
            <path d="M58.3474759,59.25 C61.2074759,59.25 63.5274759,61.57 63.5274759,64.43 C63.5274759,67.29 61.2074759,69.61 58.3474759,69.61 C55.4874759,69.61 53.1674437,67.29 53.1674437,64.43 C53.1574759,61.57 55.4774759,59.25 58.3474759,59.25 L58.3474759,59.25 Z" id="Path" fill="#DE6932"></path>
            <path d="M35.8674759,80.59 C39.3574759,80.59 42.1874759,83.42 42.1874759,86.91 C42.1874759,90.4 39.3574759,93.23 35.8674759,93.23 C32.3774759,93.23 29.5474759,90.4 29.5474759,86.91 C29.5474759,83.41 32.3774759,80.59 35.8674759,80.59 L35.8674759,80.59 Z" id="Path" fill="#DE6932"></path>
            <path d="M76.3874759,82.8 C80.9774759,82.8 84.6874759,86.52 84.6874759,91.1 C84.6874759,95.69 80.9674759,99.4 76.3874759,99.4 C71.7974759,99.4 68.0874759,95.68 68.0874759,91.1 C68.0874759,86.52 71.8074759,82.8 76.3874759,82.8 L76.3874759,82.8 Z" id="Path" fill="#DE6932"></path>
            <path d="M93.8674759,23.1 C96.9474759,23.1 99.4474759,25.6 99.4474759,28.68 C99.4474759,31.76 96.9474759,34.26 93.8674759,34.26 C90.7874759,34.26 88.2874759,31.76 88.2874759,28.68 C88.2874759,25.6 90.7874759,23.1 93.8674759,23.1 L93.8674759,23.1 Z" id="Path" fill="#DE6932"></path>
            <path d="M49.4874759,32.23 C52.2274759,32.23 54.4374759,34.45 54.4374759,37.18 C54.4374759,39.92 52.2174759,42.13 49.4874759,42.13 C46.7474759,42.13 44.5374759,39.91 44.5374759,37.18 C44.5374759,34.45 46.7574759,32.23 49.4874759,32.23 L49.4874759,32.23 Z" id="Path" fill="#DE6932"></path>
        </g>
    </g>
</svg>